<svg xmlns="http://www.w3.org/2000/svg" version="1.1" xmlns:xlink="http://www.w3.org/1999/xlink" xmlns:svgjs="http://svgjs.com/svgjs" width="100%" height="100%"><svg width="100%" height="100%" viewBox="0 0 2046 2355" version="1.1" xmlns="http://www.w3.org/2000/svg" xmlns:xlink="http://www.w3.org/1999/xlink" xml:space="preserve" xmlns:serif="http://www.serif.com/" style="fill-rule:evenodd;clip-rule:evenodd;stroke-linejoin:round;stroke-miterlimit:2;"><g id="SvgjsG1002"><path d="M1117.35,2185.89c-11.223,6.48 -25.789,2.577 -32.268,-8.646c-2.074,-3.591 -3.165,-7.665 -3.165,-11.811l0,-633.389c0,-8.429 -4.512,-16.243 -11.811,-20.457l-727.817,-420.205c-11.222,-6.479 -25.789,-2.576 -32.268,8.646c-2.073,3.591 -3.165,7.665 -3.165,11.811l0,465.36c0,8.429 4.512,16.243 11.811,20.457l550.651,317.918c11.223,6.48 25.789,2.577 32.269,-8.646c2.073,-3.591 3.164,-7.665 3.164,-11.811l0,-63.557c0,-8.429 -4.511,-16.243 -11.811,-20.458l-471.986,-272.501c-7.3,-4.215 -11.811,-12.029 -11.811,-20.457l0,-210.868c0,-12.958 10.663,-23.622 23.622,-23.622c4.146,0 8.22,1.092 11.811,3.165l507.42,292.959c7.299,4.214 11.811,12.028 11.811,20.457l0,710.585c0,8.429 4.511,16.243 11.811,20.457l35.433,20.457c7.299,4.215 16.322,4.215 23.622,0l999.242,-576.913c7.3,-4.214 11.811,-12.028 11.811,-20.457l0,-1153.83c0,-8.429 -4.511,-16.243 -11.811,-20.457l-680.345,-392.798c-11.222,-6.479 -25.789,-2.576 -32.268,8.647c-2.073,3.59 -3.165,7.664 -3.165,11.811l0,63.557c0,8.429 4.512,16.243 11.811,20.457l601.681,347.381c7.299,4.214 11.811,12.028 11.811,20.457l0,1035.72c0,8.429 -4.512,16.243 -11.811,20.457l-814.279,470.124Z" style="fill-rule:nonzero;"></path></g><g id="SvgjsG1001"><path d="M1542.1,1586.33l-389.309,224.767c-7.3,4.215 -11.811,12.029 -11.811,20.458l0,63.557c0,12.959 10.663,23.622 23.622,23.622c4.146,0 8.22,-1.091 11.811,-3.165l550.651,-317.918c7.299,-4.214 11.811,-12.028 11.811,-20.457l0,-40.915c0,-8.429 -4.512,-16.243 -11.811,-20.457l-1223.42,-706.345c-11.222,-6.479 -15.126,-21.046 -8.646,-32.268c2.073,-3.591 5.055,-6.573 8.646,-8.646l389.309,-224.768c7.3,-4.215 11.811,-12.029 11.811,-20.458l0,-63.557c0,-12.959 -10.663,-23.622 -23.622,-23.622c-4.146,0 -8.22,1.092 -11.811,3.165l-550.651,317.918c-7.299,4.215 -11.811,12.029 -11.811,20.457l0,40.915c0,8.429 4.512,16.243 11.811,20.457l1223.42,706.345c11.223,6.479 15.126,21.046 8.647,32.268c-2.074,3.591 -5.056,6.573 -8.647,8.647Z" style="fill-rule:nonzero;"></path></g><g id="SvgjsG1000"><path d="M963.81,189.466l0,633.389c0,8.429 4.511,16.243 11.811,20.457l727.816,420.205c11.222,6.479 25.789,2.576 32.268,-8.646c2.073,-3.591 3.165,-7.665 3.165,-11.811l0,-465.36c0,-8.428 -4.512,-16.242 -11.811,-20.457l-550.651,-317.918c-11.223,-6.48 -25.789,-2.577 -32.268,8.646c-2.073,3.591 -3.165,7.665 -3.165,11.811l0,63.557c0,8.429 4.511,16.243 11.811,20.458l471.986,272.501c7.3,4.215 11.811,12.029 11.811,20.458l0,210.867c0,12.958 -10.663,23.622 -23.622,23.622c-4.146,0 -8.22,-1.092 -11.811,-3.165l-507.419,-292.959c-7.3,-4.214 -11.811,-12.028 -11.811,-20.457l0,-710.585c0,-8.429 -4.512,-16.243 -11.811,-20.457l-35.433,-20.457c-7.3,-4.215 -16.323,-4.215 -23.622,0l-999.243,576.913c-7.3,4.214 -11.811,12.028 -11.811,20.457l0,1153.83c0,8.429 4.511,16.243 11.811,20.457l680.345,392.798c11.223,6.479 25.789,2.576 32.268,-8.647c2.073,-3.59 3.165,-7.664 3.165,-11.811l0,-63.557c0,-8.429 -4.511,-16.243 -11.811,-20.457l-601.681,-347.381c-7.299,-4.214 -11.811,-12.028 -11.811,-20.457l0,-1035.72c0,-8.429 4.512,-16.243 11.811,-20.457l814.279,-470.124c11.223,-6.48 25.789,-2.577 32.269,8.646c2.073,3.591 3.165,7.665 3.165,11.811Z" style="fill-rule:nonzero;"></path></g></svg><style>:root { fill: #212121; }
@media (prefers-color-scheme: dark) { :root { fill: #fff; } }
</style></svg>
