<svg xmlns="http://www.w3.org/2000/svg" viewBox="0 0 869 1000"><path d="m654.849 673.632-165.32 95.447a10.042 10.042 0 0 0-5.016 8.687v26.99c0 5.503 4.529 10.031 10.031 10.031 1.761 0 3.491-.464 5.016-1.344l233.833-135.004a10.04 10.04 0 0 0 5.016-8.687v-17.374c0-3.579-1.916-6.898-5.016-8.687L213.867 343.743c-4.765-2.752-6.423-8.938-3.671-13.703a10.038 10.038 0 0 1 3.671-3.672l165.32-95.447a10.042 10.042 0 0 0 5.016-8.687v-26.99c0-5.503-4.528-10.031-10.031-10.031-1.761 0-3.491.464-5.016 1.344L135.323 321.561a10.04 10.04 0 0 0-5.016 8.687v17.374c0 3.579 1.916 6.898 5.016 8.687l519.526 299.948c4.765 2.752 6.423 8.938 3.671 13.703a10.038 10.038 0 0 1-3.671 3.672Z M409.28 80.455v268.968c0 3.579 1.916 6.897 5.016 8.687l309.066 178.439c4.766 2.752 10.951 1.094 13.703-3.671a10.037 10.037 0 0 0 1.344-5.016V330.248a10.04 10.04 0 0 0-5.016-8.687L499.56 186.557c-4.766-2.752-10.951-1.094-13.703 3.672a10.03 10.03 0 0 0-1.344 5.015v26.99c0 3.579 1.916 6.897 5.016 8.687l200.428 115.717a10.042 10.042 0 0 1 5.016 8.687v89.545c0 5.503-4.528 10.031-10.031 10.031-1.761 0-3.491-.464-5.016-1.344L464.451 329.152a10.039 10.039 0 0 1-5.015-8.687V18.717c0-3.58-1.916-6.898-5.016-8.688l-15.046-8.687a10.045 10.045 0 0 0-10.031 0L5.016 246.328A10.04 10.04 0 0 0 0 255.015v489.97a10.04 10.04 0 0 0 5.016 8.687l288.907 166.801c4.766 2.752 10.951 1.094 13.703-3.671a10.037 10.037 0 0 0 1.344-5.016v-26.989c0-3.58-1.916-6.898-5.016-8.688L48.451 728.595a10.044 10.044 0 0 1-5.015-8.687V280.092c0-3.579 1.916-6.897 5.015-8.687L394.234 71.768c4.765-2.752 10.951-1.094 13.702 3.671a10.027 10.027 0 0 1 1.344 5.016Z M474.482 928.232c-4.765 2.752-10.951 1.094-13.702-3.671a10.027 10.027 0 0 1-1.344-5.016V650.577c0-3.579-1.916-6.897-5.016-8.687L145.354 463.451c-4.766-2.752-10.951-1.094-13.703 3.671a10.037 10.037 0 0 0-1.344 5.016v197.614a10.04 10.04 0 0 0 5.016 8.687l233.833 135.004c4.766 2.752 10.951 1.094 13.703-3.672a10.03 10.03 0 0 0 1.344-5.015v-26.99c0-3.579-1.916-6.897-5.016-8.687L178.759 653.362a10.042 10.042 0 0 1-5.016-8.687V555.13c0-5.503 4.528-10.031 10.031-10.031 1.761 0 3.491.464 5.016 1.344l215.475 124.405a10.039 10.039 0 0 1 5.015 8.687v301.748c0 3.58 1.916 6.898 5.016 8.688l15.047 8.687a10.045 10.045 0 0 0 10.031 0l424.327-244.986a10.041 10.041 0 0 0 5.015-8.687v-489.97c0-3.58-1.916-6.898-5.015-8.687L574.793 79.527c-4.766-2.752-10.951-1.094-13.703 3.671a10.037 10.037 0 0 0-1.344 5.016v26.989c0 3.58 1.916 6.898 5.016 8.688l255.503 147.514a10.041 10.041 0 0 1 5.015 8.687v439.816c0 3.579-1.915 6.897-5.015 8.687L474.482 928.232Z"/></svg>