<svg version="1" xmlns="http://www.w3.org/2000/svg" width="3140" height="3140" viewBox="0 0 2355.000000 2355.000000"><path d="M1165.8 3c-2.9 1.5-6.9 3.6-8.8 4.7-9 5.2-36.2 21-42 24.3-7.7 4.4-23 13.3-28 16.2-1.9 1.1-15.4 8.9-30 17.3s-28.1 16.2-30 17.3c-1.9 1.2-4.6 2.7-6 3.5-1.4.7-10.1 5.8-19.5 11.2-9.3 5.4-27.1 15.7-39.5 22.8-12.4 7.2-25 14.4-28 16.2-5.6 3.3-17.1 9.9-23.2 13.3-4.6 2.7-33.6 19.5-37.8 22.1-1.9 1.1-5.1 2.9-7 3.9-1.9 1-7 4-11.3 6.5-4.3 2.6-8.1 4.7-8.4 4.7-.3 0-1.7.8-3.1 1.9-1.5 1-4.7 2.9-7.2 4.3-4.7 2.6-8.8 4.9-83 47.8-25 14.5-54.5 31.5-65.5 37.8-11 6.3-22.9 13.2-26.4 15.3-3.4 2.2-6.5 3.9-6.6 3.9-.2 0-7 3.9-15.2 8.6-8.1 4.8-16.3 9.5-18.1 10.5-1.8 1.1-22.3 12.9-45.5 26.3s-43.8 25.3-45.7 26.3c-1.9 1.1-11.8 6.8-21.9 12.7-10.1 5.8-18.5 10.6-18.7 10.6-.3 0-1.7.8-3.2 1.9-2.1 1.5-32.3 19-60.2 34.9-1.9 1.1-17.7 10.2-35 20.2s-33.1 19.1-35 20.2c-3.7 2-4.5 2.5-12.7 7.5-3 1.8-5.6 3.3-5.8 3.3-.3 0-3.5 1.8-7.1 4-3.6 2.2-6.7 4-6.9 4-.2 0-3.8 2-8 4.6-4.3 2.5-16.6 9.6-27.4 15.8-10.8 6.2-29.5 17.1-41.6 24.1-12.1 7-23.8 13.8-26 15-15.9 8.7-56.6 32.8-59 34.9-1.6 1.5-3.9 4.5-5 6.8-2 4.2-2 6.2-2 587.7 0 541.1.1 583.8 1.7 586.6 2.3 4.3 8.1 9.8 13 12.4 2.4 1.2 5.9 3.1 7.8 4.3 5.3 3.1 54 31.3 58 33.5 1.9 1.1 8 4.6 13.5 7.8s11.4 6.6 13 7.5c1.7.9 6.5 3.8 10.8 6.4 4.3 2.5 8.1 4.6 8.3 4.6.2 0 2.1 1.1 4.2 2.3 2 1.3 5.7 3.5 8.2 4.9 2.5 1.4 14.2 8.1 26 15s22.4 13 23.5 13.6c1.1.6 5.4 3.1 9.5 5.5s9.5 5.5 12 6.9c2.5 1.4 17.3 10 33 19 79.3 45.9 139 80.3 143 82.6 2.5 1.4 7.8 4.4 11.7 6.8 4 2.4 7.5 4.4 7.7 4.4.3 0 3.3 1.7 6.8 3.9 7.2 4.4 36.1 21.1 51.5 29.8 2.3 1.3 17.8 10.2 34.4 19.8 16.5 9.6 30.4 17.5 30.9 17.5s1 .3 1.2.7c.2.5 1.7 1.5 3.3 2.4 3.1 1.6 33.2 19 39.5 22.8 1.9 1.1 4.2 2.4 5 2.8.8.3 3.9 2.1 6.8 4 2.9 1.8 5.4 3.3 5.6 3.3.2 0 12.9 7.3 28.2 16.1 15.4 8.9 29.5 17.1 31.4 18.1 1.9 1.1 12 7 22.3 13 26.5 15.4 28.6 16.1 38.3 13.3 7.1-2.1 13.7-8.3 15.6-14.9 1-3.5 1.3-13.3 1.3-40.9-.1-34.7-.2-36.4-2.2-40.2-1.2-2.2-3.4-5.2-5-6.7-1.5-1.5-21.3-13.4-43.8-26.4-46.7-27-98.6-56.9-103-59.4-1.6-1-11.8-6.8-22.5-13s-20.8-12.1-22.5-13c-1.6-1-11.8-6.8-22.5-13s-21.4-12.3-23.7-13.6c-2.3-1.3-9.3-5.4-15.5-9-6.2-3.7-12.9-7.6-14.8-8.6-8.9-5.1-13-7.4-19.5-11.3-3.8-2.3-9.5-5.5-12.5-7.2-3-1.6-12-6.8-20-11.5-11.9-6.9-36.1-20.9-52.7-30.5-18.3-10.5-71.3-41.2-73.3-42.4-.8-.5-19.9-11.5-42.5-24.5-22.5-13-42.3-24.4-44-25.4-1.6-.9-12-6.9-23-13.2-11-6.4-21.6-12.5-23.5-13.6-30.8-17.5-32.6-18.8-36.3-25.7l-2.2-4v-1048l2.3-4.2c3.7-7 5.1-8 40.2-28.1 1.9-1.1 9.1-5.2 16-9.2 24.4-14.1 45.5-26.3 49-28.3 3.7-2.1 37.2-21.4 48-27.7 11.1-6.5 30.2-17.5 36.5-21.1 3.3-1.9 6.7-3.9 7.6-4.4.9-.6 4.3-2.5 7.5-4.3 3.2-1.7 6.6-3.7 7.4-4.2 2.3-1.5 21.3-12.5 23-13.3.8-.4 2.9-1.5 4.5-2.5 3.8-2.4 18.8-11 72-41.7 23.7-13.6 46.8-27 51.5-29.8 4.7-2.7 10-5.8 11.8-6.9 5-2.8 15.2-8.6 29.1-16.6 6.9-4 12.7-7.2 13-7.2.2 0 1.2-.6 2-1.4.9-.7 4.1-2.7 7.1-4.4 3-1.6 13.8-7.8 24-13.7 10.2-5.9 24.5-14.2 31.8-18.4 7.3-4.2 14.5-8.3 16-9.2 1.5-.9 4.8-2.7 7.3-4.1 2.5-1.4 7.6-4.4 11.3-6.7 3.8-2.2 6.9-4.1 7.1-4.1.2 0 3-1.6 33-19 8.8-5.1 17.6-10.1 19.5-11.2 1.9-1.1 10.9-6.3 20-11.6 9.1-5.2 19.5-11.3 23.2-13.4 3.7-2.1 8.2-4.6 10-5.7 1.8-1 7.4-4.2 12.3-7.1 5-3 11.7-6.9 15-8.7 3.3-1.9 6.7-3.8 7.5-4.3.8-.5 5.3-3.2 10-5.9 8.1-4.7 11.4-6.5 19.8-11.2 2-1.2 4.2-2.5 4.7-2.9.6-.4 3.5-2.1 6.5-3.8 3-1.6 10.6-5.9 16.8-9.6 6.2-3.6 13.2-7.7 15.5-9 2.3-1.3 9.8-5.6 16.7-9.6 15.4-8.9 52.2-30.1 57-32.7 1.9-1.1 5.8-3.4 8.5-5 7-4.3 11.8-5.6 18-5 9.5.9 16.7 6.6 19.8 15.9 1.4 4 1.6 39 1.6 324 0 175.7.3 320.8.6 322.4 1.2 5.2 6.5 11.9 11.8 15 9.6 5.5 13.2 7.6 19 11 3.2 1.9 6 3.4 6.3 3.4.3 0 1.7.9 3.2 1.9 1.5 1 17.6 10.4 35.7 20.9 36.4 20.9 95.9 55.3 100.9 58.2 1.7 1.1 4.2 2.5 5.6 3.2 3.8 2.1 68.2 39.3 79 45.7 5.2 3.1 10 5.8 10.5 6 1.6.6 19.7 11.1 22.7 13.2 1.5 1.1 2.9 1.9 3.2 1.9.2 0 3.7 1.9 7.8 4.3 4 2.4 9.3 5.5 11.8 6.9 6.2 3.5 8.7 4.9 30.8 17.7 10.6 6.1 20.7 12 22.5 13 1.7 1 7.3 4.2 12.2 7.1 5 2.9 10.6 6.2 12.5 7.2 1.9 1.1 8 4.6 13.5 7.8s11.7 6.7 13.8 7.9c6.8 3.9 10.2 5.8 15.7 9.1 3 1.8 7.5 4.4 10 5.8 2.5 1.4 15.8 9 29.5 17 13.8 8 34 19.6 45 26 11 6.3 25.4 14.6 32 18.5 6.6 3.8 14 8.1 16.5 9.5 2.5 1.4 12.4 7.1 22 12.7s19.5 11.3 22 12.7c6.4 3.6 29.8 17.1 38.7 22.4 4.1 2.4 7.6 4.4 7.8 4.4.2 0 7.5 4.2 16.3 9.4 8.8 5.1 16.6 9.6 17.3 10 .8.3 2.8 1.4 4.4 2.5 17.1 10.4 42.3 24.3 45.6 25 10.8 2.4 21.7-3.1 26.5-13.4l2.4-5-.3-238c-.2-229.6-.3-238.1-2.1-241.7-2.7-5.6-6.9-9.2-18-15.5-5.6-3.1-11.2-6.4-12.6-7.3-1.4-1-4.7-3-7.5-4.5-5.5-3-41.9-24-47.5-27.4-1.9-1.1-4.2-2.4-5-2.8-1.2-.5-43.8-25-51-29.3-.8-.5-14.5-8.4-30.5-17.6-15.9-9.2-33.7-19.5-39.5-22.9-5.8-3.4-12.5-7.3-15-8.7-5.4-3.1-49.3-28.4-53.5-30.9-1.6-1-4.1-2.4-5.5-3.2-2.3-1.2-99.5-57.3-123.5-71.2-5.5-3.2-13.1-7.6-17-9.8-3.8-2.2-16.5-9.5-28.1-16.3-11.7-6.8-22.7-13.2-24.5-14.2-1.9-1-10.8-6.2-19.9-11.4-9.1-5.3-18.1-10.5-20-11.5-1.9-1.1-12.3-7.1-23-13.3-10.7-6.2-21.3-11.9-23.5-12.5-8.2-2.5-17.2-.4-23.1 5.5-7.4 7.3-7.4 7.5-7.1 49.9.2 33.4.4 38 1.9 40.7 3.4 6.2 7.9 9.6 27.7 20.6 2 1.1 10.8 6.2 19.6 11.3l19.5 11.3c8.4 4.7 43.2 24.9 50.8 29.3 4.5 2.7 8.4 4.9 8.7 4.9.2 0 4 2.2 8.5 5 4.5 2.7 8.3 5 8.5 5 .2 0 2.8 1.4 5.7 3.1 2.9 1.8 6.8 4 8.6 5.1 1.8 1 10.3 5.9 18.7 10.8 8.4 4.9 16.9 9.8 18.7 10.8 1.8 1.1 13.7 7.9 26.3 15.2 12.7 7.3 33.1 19.1 45.5 26.3 12.4 7.1 24.1 13.9 26 15 1.9 1.1 6 3.3 9 5 3 1.6 6.2 3.6 7.1 4.3.8.8 1.9 1.4 2.2 1.4.4 0 4 2 8 4.4 3.9 2.4 9.2 5.4 11.7 6.8 2.5 1.4 8.6 4.9 13.5 7.8 5 2.9 10.8 6.2 13 7.5 2.2 1.2 15.5 8.9 29.5 17 25 14.5 55.3 32 61.8 35.7 1.7 1 4.7 2.6 6.5 3.7 1.7 1 8.8 5.1 15.7 9.1 13.9 7.9 17 10.5 20.2 16.4l2.2 4.1v223l-2.1 4c-4.9 9.1-13.3 14-23.1 13.3-4.5-.3-7.4-1.4-14.2-5.2-4.7-2.7-10.4-5.9-12.7-7.2-2.3-1.3-9.3-5.4-15.5-9-11.8-7-15.3-9-21.5-12.5-11.5-6.5-32.3-18.5-35.3-20.4-3-1.9-11.3-6.6-23.4-13.5-1.7-.9-11.9-6.8-22.6-13-10.7-6.2-20.8-12.1-22.5-13-5.7-3.2-49-28.3-64.3-37.2-8.4-4.9-17.4-10.1-20-11.5-4.3-2.4-64.8-37.2-68.2-39.3-2-1.1-52.7-30.6-56.5-32.7-1.6-1-5.5-3.2-8.5-4.9-3-1.8-7.1-4.1-9-5.2-11-6.2-24-13.7-35-20.2-6.9-4-14.5-8.4-17-9.8-2.5-1.3-4.9-2.8-5.5-3.2-.5-.4-3-1.9-5.5-3.2-13.6-7.6-59-34-62.3-36.2-4.1-2.9-7.2-7.3-8.7-12.6-.7-2.3-1-128.5-1-362-.1-277.8-.3-359.4-1.3-362.5-1.7-5.5-8.5-12.1-18.7-17.8-9.2-5.2-14.5-8.2-23-13.1-10.9-6.4-18.5-7.1-27.2-2.6z"/><path d="M1489 185.2c-7.7 2.1-14.2 9.1-15.9 17-1.3 5.7-1.2 69 0 75 1.3 5.9 7 12.6 14.2 16.6 6.2 3.4 7.6 4.2 32.7 18.7 10.7 6.2 21.1 12.2 23 13.4 1.9 1.1 4.1 2.4 4.8 2.7.7.4 11.7 6.7 24.4 14 12.7 7.4 23.2 13.4 23.4 13.4.2 0 2.8 1.6 5.8 3.5s5.8 3.5 6.1 3.5c.3 0 2.2 1.1 4.3 2.4 3.1 2 36.2 21.2 47.2 27.4 1.9 1 15 8.6 29 16.7s40.4 23.3 58.5 33.8c18.2 10.4 41 23.7 50.8 29.4 9.8 5.6 18 10.3 18.2 10.3.1 0 3.3 1.9 7.1 4.1 3.7 2.3 8.8 5.3 11.3 6.7 2.5 1.4 5.8 3.2 7.3 4.1 1.5.9 7.3 4.3 13 7.5 16.6 9.6 91.1 52.5 93.3 53.8 12 7.1 99.1 57.5 106.2 61.4 19 10.8 34.3 20 36.6 22.2 1.5 1.4 3.7 4.6 4.9 7.1l2.2 4.6.1 521c0 324.9-.3 522.5-.9 525-1.8 7.5-5.7 12.3-13.6 16.7-7.1 4-46.3 26.7-48 27.8-.8.5-3.1 1.8-5 2.9-2 1.1-14.6 8.3-28 16.1-13.5 7.9-26.3 15.2-28.5 16.5-4.4 2.4-49.7 28.5-67.1 38.7-6.1 3.6-11.7 6.8-12.5 7.1-.8.4-3.5 2-6 3.5s-11 6.4-19 11c-7.9 4.6-15.1 8.8-15.9 9.3-2.9 1.7-18.6 10.7-22.5 12.9-2.2 1.2-9.6 5.5-16.5 9.5-18.2 10.6-62.8 36.3-68 39.3-2.5 1.4-6.2 3.6-8.2 4.9-2.1 1.2-4 2.3-4.3 2.3-.3 0-3.1 1.6-6.1 3.5-3 1.9-5.6 3.5-5.8 3.5-.2 0-5.5 3-11.7 6.7-6.3 3.6-14.3 8.3-17.9 10.3-3.6 2-13.9 8-23 13.2-38.6 22.3-46.3 26.8-46.8 26.8-.2 0-1.6.8-3 1.9-1.5 1-4.7 2.9-7.2 4.3s-8.5 4.9-13.5 7.8c-4.9 2.9-11.5 6.6-14.5 8.3-3 1.7-8.6 4.9-12.5 7.2-5.7 3.4-22.8 13.3-38.9 22.5-1.7.9-13 7.5-25.1 14.5-12.1 7-26.3 15.2-31.5 18.2-5.2 2.9-10.2 5.8-11 6.3-1.5 1-28.5 16.6-35 20.2-5.2 3-42.2 24.3-52.5 30.4-32.6 19-99.3 57.3-105.5 60.6-7 3.7-7.9 4-13.8 3.5-10.6-.8-20-8.7-21.6-18.2-.3-1.7-.6-147-.6-323v-320l-2.4-5c-1.3-2.8-3.6-6.2-5.2-7.6-1.6-1.5-18-11.4-36.4-21.9-18.4-10.6-38.2-22.1-44-25.5-5.8-3.4-11.2-6.4-12-6.8-.8-.4-2.8-1.5-4.5-2.6-1.6-1-4.8-2.8-7-4.1-2.2-1.2-8-4.6-13-7.5-4.9-2.9-10.6-6.2-12.5-7.3-1.9-1.1-7.5-4.3-12.3-7.1-4.9-2.8-9.3-5.1-9.8-5.1s-.9-.5-.9-1c0-.6-.4-1-.9-1s-13.4-7.3-28.7-16.1c-15.4-8.9-29.5-17.1-31.4-18.1-1.9-1.1-6.4-3.7-10-5.8-3.6-2.1-8.2-4.7-10.2-5.9-5.6-3.1-9-5.1-22.3-12.8-26.6-15.5-70.3-40.8-74.5-43.1-2.5-1.4-10.1-5.8-17-9.7-6.9-4-21.3-12.3-32-18.5-10.7-6.2-42.4-24.6-70.5-40.8-28-16.2-55.3-31.9-60.5-34.8-5.2-3-10.2-5.8-11-6.3-4.9-3.2-17.4-10.1-18.1-10.1-.5 0-.9-.5-.9-1 0-.6-.4-1-1-1-.5 0-4.7-2.2-9.2-4.9-4.6-2.7-9.9-5.8-11.9-6.9-1.9-1.1-20.6-11.8-41.5-23.9-20.8-12.1-40-23.1-42.6-24.6-4.8-2.7-11-6.3-14.3-8.5-1.1-.6-2.7-1.5-3.5-1.9-.8-.4-3.7-2-6.5-3.6-26.4-15.5-63.6-36.6-66-37.4-4.1-1.3-12.3-.9-16.5 1-4.3 1.9-9.3 6.5-11.7 10.9-1.7 3.1-1.8 14.7-2 242.6-.3 236-.3 239.3 1.7 243.1 1 2.1 3.2 5.2 4.8 6.7 2.3 2.4 24.1 15.4 55.5 33.3 2.3 1.3 11.2 6.4 19.7 11.3 8.5 5 18 10.4 21 12.1 3 1.7 10.2 5.8 16 9.2 5.8 3.4 12.5 7.3 15 8.7 2.5 1.4 20.3 11.7 39.5 22.8 19.3 11.2 42.4 24.6 51.5 29.8 9.1 5.2 26.6 15.3 39 22.5 12.4 7.1 29.7 17.1 38.5 22.2 8.8 5.1 17.6 10.1 19.5 11.2 1.9 1.1 11.6 6.7 21.5 12.5 9.9 5.7 18.9 11 20 11.6 1.1.6 8.5 4.9 16.5 9.5 8 4.7 26.9 15.5 42 24.2 15.1 8.7 35.4 20.4 45 26 9.6 5.6 19.6 11.4 22.2 12.8 2.6 1.5 14.5 8.3 26.5 15.3s24.3 14.1 27.3 15.7c3 1.7 7.8 4.5 10.5 6.2 10 6.3 14.6 8 21.3 7.9 3.5-.1 6.9-.7 7.5-1.3.6-.6 1.7-1.1 2.4-1.1 2.1 0 8.3-6.1 10.6-10.5 2.1-3.9 2.2-5.1 2.2-42 0-37.6 0-38-2.3-42.3-2.6-4.9-6.6-8.7-12.5-12.1-2.3-1.3-12.7-7.3-23.2-13.3-10.4-6.1-20.8-12.1-23-13.3-4.4-2.5-62.2-35.9-93.5-54-59.2-34.2-77.8-45-81-46.7-1.9-1.1-4.8-2.7-6.5-3.7-3.5-2.1-78.1-45.2-90.5-52.4-4.7-2.6-10.1-5.8-12-6.9-1.9-1.1-17.2-9.9-34-19.6-28.8-16.6-57.6-33.2-86.2-49.8-7-4.1-13-7.4-13.3-7.4-.8 0-6.5-4-9.9-7-1.6-1.4-3.9-4.8-5.2-7.5l-2.4-5 .1-109.5c0-87.6.3-110.2 1.3-113.2 3.4-9.5 12.8-16 23-16 6 .1 9.1 1.6 40.1 19.6 12.1 7.1 23.8 13.8 26 15.1 2.2 1.2 13.7 7.8 25.5 14.7 11.8 6.8 35.5 20.5 52.5 30.2 17.1 9.8 32.2 18.7 33.7 19.7 1.5 1.1 2.9 1.9 3.2 1.9.3 0 4.3 2.2 8.8 4.9 4.6 2.7 9.9 5.8 11.8 6.8l19.5 11.3c8.8 5.1 18 10.4 20.4 11.7 2.4 1.4 10.4 6.1 17.8 10.4 7.5 4.3 13.7 7.9 14 7.9.2 0 2.9 1.6 5.9 3.5 3 1.9 5.6 3.5 5.8 3.5.2 0 9.7 5.5 21.2 12.1 11.5 6.7 23.4 13.5 26.4 15.2 3 1.7 8.3 4.8 11.8 6.9 3.4 2.1 6.4 3.8 6.7 3.8.2 0 5.6 3.1 12.1 7 6.4 3.8 11.8 7 12 7 .2 0 4.1 2.2 8.6 4.9 6.8 4 90.4 52.3 102.8 59.3 25.5 14.6 34.1 19.9 37.2 23 7.2 7.2 6.6-25.4 6.7 371.7 0 197 .3 359.3.7 360.8.3 1.6 2 4.8 3.6 7.3 2.6 4 5.7 6.1 22.2 15.7 26.3 15.3 25.1 14.7 32.6 14.7 6.5 0 11.5-1.9 20-7.5 1.4-.9 4.5-2.7 7-4.1 2.5-1.4 7.4-4.3 11-6.3 3.6-2.1 9.2-5.4 12.5-7.2 3.3-1.9 6.7-3.8 7.5-4.3 1.4-.9 14.8-8.6 22-12.8 3.5-1.9 12.7-7.3 20.5-11.8 2.2-1.3 4.7-2.7 5.5-3.1.8-.4 4.2-2.3 7.5-4.3s8-4.8 10.5-6.2c5.4-3 32.1-18.4 55.4-32 9.2-5.4 17-9.8 17.2-9.8.2 0 2.8-1.6 5.8-3.5s5.7-3.5 6-3.5c.2 0 7.1-3.9 15.3-8.6 8.1-4.8 16.2-9.4 17.8-10.4 1.7-.9 8.9-5.1 16-9.2 7.2-4.2 14.6-8.5 16.5-9.6 1.9-1.1 10.7-6.1 19.5-11.2s17.6-10.1 19.5-11.2c1.9-1.1 7.2-4.2 11.8-6.9 4.5-2.7 8.7-4.9 9.1-4.9.5 0 1.1-.3 1.3-.8.2-.4 1.7-1.4 3.3-2.3 2.6-1.4 67.8-39 90.5-52.2 4.7-2.7 10.5-6.1 13-7.5 2.5-1.3 9.7-5.5 16-9.2 6.3-3.7 16.5-9.6 22.5-13 6.1-3.5 13.5-7.7 16.5-9.5 24.1-14 45.2-26.2 49-28.3 2.5-1.4 18.2-10.5 35-20.2s32.5-18.8 35-20.2c2.5-1.4 14.4-8.3 26.5-15.3s23.8-13.7 26-15c2.2-1.2 13.7-7.9 25.5-14.7 42.3-24.5 66-38.2 91-52.5 5.2-3 10.2-5.8 11-6.3 6.7-4 12.8-7.6 14.5-8.5 1.1-.7 16.9-9.7 35-20.2 18.2-10.5 34.6-19.9 36.5-21 1.9-1.1 7-4.1 11.3-6.7 4.3-2.5 8.1-4.6 8.3-4.6.2 0 2.1-1.1 4.2-2.4 2-1.2 15.9-9.3 30.7-17.9 65.7-37.8 76.2-44 78.8-46.5 1.6-1.5 3.9-4.5 5-6.7l2.2-4v-583c-.1-542.3-.2-583.3-1.8-586.6-2.3-5.1-6.7-9-17.6-15.4-5.1-3-9.4-5.5-9.6-5.5-.2 0-3.2-1.7-6.6-3.8-3.5-2.2-8.6-5.1-11.4-6.7-2.7-1.5-17.8-10.2-33.5-19.3-15.7-9.1-29.9-17.3-31.7-18.3-1.7-1-12-6.9-23-13.2-10.9-6.3-21.4-12.4-23.3-13.5-1.9-1-12.9-7.4-24.4-14.1-11.5-6.6-21.1-12.1-21.3-12.1-.2 0-2-1.1-4.1-2.3-2.9-1.9-56.2-32.8-71.7-41.7-17.2-9.8-37.2-21.4-38-22-.5-.4-3.5-2.1-6.5-3.7-3-1.7-17-9.7-31-17.8-14-8.1-27.1-15.6-29-16.7-1.9-1.1-14.5-8.4-28-16.2-13.5-7.8-32.6-18.9-42.5-24.6-9.9-5.7-22.7-13.1-28.5-16.5-5.8-3.4-13-7.5-16-9.2-4.4-2.4-102.6-59.2-117-67.6-1.9-1.1-5.3-3-7.5-4.2-2.2-1.3-16.6-9.6-32-18.5-39.6-23-39.8-23.1-45.8-23.4-2.9-.2-6.8.1-8.7.6z"/><path d="M1025.7 438.5c-3.2 1.2-6.3 2.7-7 3.3-.6.5-3 2-5.2 3.2-3.5 2-37.6 21.6-85.5 49.3-8.5 4.9-24 13.9-34.5 19.9-10.4 6-19.7 11.4-20.5 11.9-2.6 1.5-29.4 17-54.5 31.4-13.2 7.6-28 16.1-33 19-10.4 6.1-40.5 23.5-112.5 65-47.9 27.6-95.8 55.3-119.5 69-8.9 5.2-16.3 9.4-26.7 15.4-7.9 4.5-38.4 22.2-39.8 23-.8.6-3.2 1.9-5.4 3.1-9.9 5.4-14.5 9-17.3 13.7l-2.8 4.8-.3 25.2c-.2 15.6.1 26.6.7 29.1 1.9 6.7 6.3 11.6 15.6 17.1 4.8 2.8 8.9 5.1 9.1 5.1.3 0 3 1.6 6 3.5s5.6 3.5 5.9 3.5c.2 0 4.9 2.7 10.4 5.9 5.5 3.3 11.7 6.9 13.8 8 2.1 1.2 5.6 3.2 7.8 4.6 2.2 1.4 4.7 2.8 5.5 3.2.8.4 8.7 4.9 17.4 10s16 9.3 16.2 9.3c.1 0 3.8 2.1 8.1 4.6 4.3 2.6 9.4 5.6 11.3 6.7 5.5 3.1 93.9 54.1 99.8 57.6 2.9 1.7 5.5 3.1 5.8 3.1.3 0 2.5 1.4 4.9 3 2.4 1.6 4.6 3 4.8 3 .3 0 10.1 5.6 21.9 12.4 38.6 22.3 79.2 45.8 82.6 47.7 1.7 1.1 4.7 2.7 6.5 3.8 1.7 1 10.4 6 19.2 11.1 8.8 5.1 18 10.4 20.5 11.8 4.6 2.6 19.8 11.4 26 15.1 1.9 1.1 4.2 2.4 5 2.8.8.4 6 3.3 11.5 6.5 5.5 3.3 10.7 6.3 11.5 6.8 13.3 7.6 45.3 26.1 48.4 27.9 2.2 1.3 7 4 10.6 6.1 3.6 2.1 8.1 4.7 10 5.7 1.9 1.1 11.6 6.7 21.5 12.5 9.9 5.7 20.7 12 24 13.9 3.3 1.8 7.2 4.1 8.6 4.9 1.4.8 5.9 3.4 10 5.8 4.1 2.3 8.1 4.7 8.9 5.2.8.5 8.3 4.8 16.5 9.5 8.3 4.7 15.7 8.9 16.5 9.5 2.1 1.3 11.6 6.8 16.7 9.7 2.3 1.2 10.8 6.1 18.8 10.8 8.1 4.7 15.1 8.5 15.6 8.5s.9.4.9 1c0 .5.4 1 .9 1s23.5 13.1 51.2 29.1c27.7 16 52.2 30.1 54.4 31.4 5.1 2.9 58.3 33.6 74 42.8 6.6 3.8 14 8.1 16.5 9.5 2.5 1.3 8.6 4.8 13.5 7.7 14.2 8.3 47.5 27.6 52.5 30.3 5.1 2.8 10.6 6.1 13.5 8 1.1.6 2.7 1.5 3.5 1.9.8.4 5.5 3.1 10.4 6s9 5.3 9.1 5.3c.1 0 6.5 3.6 14.1 8.1 13.4 7.8 17.1 9.9 27 15.5 2.6 1.4 10.7 6.2 18.1 10.5 7.5 4.3 13.7 7.9 13.9 7.9.2 0 3.2 1.8 6.6 4 3.5 2.2 6.9 4 7.6 4 .6 0 1.2.4 1.2 1 0 .5.4 1 .9 1s13.4 7.3 28.7 16.1c15.4 8.9 29.5 17.1 31.4 18.2 1.9 1.1 15 8.6 29 16.7s26.9 15.5 28.5 16.4c1.7.9 3.7 2.1 4.5 2.6 4 2.7 48.4 28 49 28 1.2 0 7.7 7.6 9.5 11 2.2 4.3 2.9 10.9 1.6 15.7-1.9 6.9-6.3 11.7-15.8 17.3-8.3 4.9-31 18-39.1 22.6-2 1.1-16.7 9.6-32.7 18.8-15.9 9.3-30.8 17.8-33 19.1-2.2 1.2-8 4.6-13 7.5-9.6 5.6-54.7 31.6-58 33.5-2.1 1.1-11.9 6.9-14.5 8.5-1.4.9-42.8 24.7-50 28.7-6.7 3.8-14.5 8.3-16 9.3-.8.5-5.3 3.1-10 5.8-4.7 2.7-17.7 10.2-29 16.7s-21.4 12.3-22.5 12.9c-1.1.6-2.7 1.6-3.5 2.2-.8.7-3.7 2.4-6.5 3.8-2.7 1.5-5.7 3.1-6.5 3.7-2.8 1.7-34.3 19.9-34.5 19.9-1.3 0-19.2 11.5-21.1 13.5-6 6.4-5.9 5.8-6.2 45.5-.2 25.7 0 37.7.9 40.7 2.2 8 10.3 15.1 19.1 16.7 8 1.4 7.3 1.7 72.8-36.2 5.2-3 11-6.4 12.9-7.4 7.5-4.3 51.3-29.5 62.1-35.8 6.3-3.7 13.8-8 16.5-9.5 2.8-1.5 6.2-3.6 7.7-4.6 1.4-1.1 2.8-1.9 3-1.9.5 0 9.9-5.4 49.8-28.5 11.3-6.5 33.3-19.2 49-28.3 15.7-9 41.6-24 57.5-33.2 33.7-19.5 59.7-34.5 64.2-37.1 1.7-.9 12-6.9 23-13.2 20.8-12 25-14.4 32.3-18.6 2.5-1.4 4.7-2.9 4.8-3.3.2-.4.8-.8 1.4-.8.5 0 5.3-2.6 10.6-5.7 5.4-3.2 10.6-6.2 11.7-6.8 5-2.8 45.1-25.8 46-26.5.6-.4 2.6-1.7 4.5-2.7 19.4-10.9 38-22 40.3-24.2 1.6-1.4 3.9-4.4 5-6.6 2.1-3.8 2.2-5.3 2.2-30.5 0-36.4 1.4-33.9-29-51.4-9.3-5.4-18.6-10.8-20.5-11.9-6.9-3.9-51-29.3-77.8-44.9-15.1-8.7-27.6-15.8-27.9-15.8-.3 0-1.7-.8-3.1-1.9-1.5-1-4.7-3-7.2-4.4-2.5-1.4-26.1-15-52.5-30.2-26.4-15.3-50-28.9-52.5-30.3-2.5-1.4-5.8-3.3-7.5-4.3-1.6-1-5.7-3.3-9-5.2-6.7-3.8-5.2-3-35-20.2-12.1-7-23.6-13.7-25.5-14.8-1.9-1-7.1-4-11.5-6.6-4.4-2.5-8.8-5.1-9.7-5.6-1-.6-8.4-4.8-16.5-9.5s-15.3-8.6-16-8.8c-.7-.2-1.3-.8-1.3-1.3s-.4-.9-.9-.9c-.6 0-19.1-10.5-41.3-23.3-22.2-12.9-54.2-31.4-71.3-41.2-17-9.8-33.2-19.1-36-20.8-2.7-1.6-6.3-3.8-8-4.7-9-5.1-70.3-40.5-72.9-42.1-1.7-1-3.8-2.2-4.6-2.6-.8-.3-2.6-1.4-4-2.3-1.4-1-4.7-3-7.5-4.4-2.7-1.5-6.3-3.5-8-4.5-1.6-1-4.6-2.7-6.5-3.8-1.9-1.1-12.3-7.1-23-13.3-10.7-6.2-20.8-12-22.5-13-1.6-.9-5.4-3.1-8.3-4.9-2.9-1.7-5.5-3.1-5.7-3.1-.3 0-3.5-1.9-7.2-4.2-3.8-2.2-8.6-5.1-10.8-6.3-6.6-3.7-44.7-25.7-123-71-40.7-23.5-76-43.9-78.5-45.3-2.5-1.4-5.8-3.3-7.5-4.3-1.6-1-4.3-2.6-6-3.5-1.6-.9-7.3-4.2-12.5-7.3-5.2-3-9.7-5.6-10-5.6-.3 0-1.6-.8-3-1.7-2.4-1.5-22.8-13.3-57.5-33.3-9.3-5.4-18.3-10.6-20-11.5-1.6-.9-10.2-5.9-19-11s-18-10.4-20.5-11.8c-2.5-1.4-13.7-7.9-25-14.5-11.3-6.5-23.4-13.5-27-15.5-3.6-1.9-6.9-3.8-7.5-4.2-1-.8-29.5-17.4-37.5-21.8-2.5-1.4-6.1-3.5-8-4.7-1.9-1.2-4.2-2.5-5-2.9-.8-.4-2.4-1.2-3.5-1.9-1.2-.7-7.7-4.5-14.5-8.5-6.9-4.1-13.6-8.7-14.9-10.4-7.5-9.3-6.4-23.6 2.3-31.8 2.7-2.6 12.6-8.6 31.1-19 2.8-1.5 10-5.7 16.2-9.3 6.2-3.6 13.2-7.7 15.5-9 2.4-1.4 7-4 10.3-5.9 3.3-1.9 13.7-7.9 23-13.3 9.4-5.4 22.4-12.9 29-16.8 6.6-3.8 14-8.1 16.5-9.5 2.5-1.3 6.5-3.7 9-5.2s11-6.4 19-11 16.6-9.6 19.3-11.2c2.6-1.5 5-2.8 5.3-2.8.2 0 1.7-.9 3.2-1.9 1.5-1 16.4-9.8 33.2-19.4 16.8-9.6 32.1-18.4 34-19.6 1.9-1.1 5.8-3.3 8.5-4.9 6.5-3.6 49.3-28.4 61-35.2 5-2.9 10.8-6.2 13-7.5 32.4-18.4 48.4-28 50.8-30.3 1.6-1.5 3.9-4.5 5-6.7 2.1-3.9 2.2-5 2.2-42 0-35.2-.1-38.3-1.9-41.5-6.3-11.9-18.6-16.5-30.9-11.5z"/></svg>