<?xml version="1.0" encoding="UTF-8" standalone="no"?><!DOCTYPE svg PUBLIC "-//W3C//DTD SVG 1.1//EN" "http://www.w3.org/Graphics/SVG/1.1/DTD/svg11.dtd"><svg width="100%" height="100%" viewBox="0 0 10417 5859" version="1.1" xmlns="http://www.w3.org/2000/svg" xmlns:xlink="http://www.w3.org/1999/xlink" xml:space="preserve" xmlns:serif="http://www.serif.com/" style="fill-rule:evenodd;clip-rule:evenodd;stroke-linejoin:round;stroke-miterlimit:2;"><rect id="Background-Landing-Pad" serif:id="Background Landing Pad" x="0" y="0" width="10416.7" height="5858.33" style="fill:none;"/><clipPath id="_clip1"><rect x="0" y="0" width="10416.7" height="5858.33"/></clipPath><g clip-path="url(#_clip1)"><rect x="0" y="0" width="10416.7" height="5858.33" style="fill:#fff;"/><g><g id="Body_Body1"><path d="M3221.22,3956.14c-11.429,6.598 -26.263,2.623 -32.861,-8.805c-2.112,-3.657 -3.223,-7.806 -3.223,-12.028l0,-645.032c0,-8.584 -4.595,-16.542 -12.028,-20.834l-741.195,-427.929c-11.429,-6.598 -26.263,-2.623 -32.862,8.806c-2.111,3.656 -3.223,7.805 -3.223,12.028l0,473.913c0,8.584 4.595,16.542 12.028,20.834l560.773,323.762c11.429,6.598 26.263,2.624 32.862,-8.805c2.111,-3.657 3.223,-7.806 3.223,-12.028l0,-64.726c0,-8.584 -4.595,-16.541 -12.028,-20.833l-480.663,-277.511c-7.434,-4.292 -12.028,-12.25 -12.028,-20.833l0,-214.744c0,-13.197 10.859,-24.056 24.056,-24.056c4.223,0 8.372,1.112 12.028,3.223l516.747,298.344c7.434,4.292 12.028,12.249 12.028,20.833l0,723.647c0,8.583 4.595,16.541 12.028,20.833l36.085,20.833c7.434,4.292 16.622,4.292 24.056,0l1017.61,-587.517c7.433,-4.292 12.028,-12.25 12.028,-20.834l0,-1175.04c0,-8.584 -4.595,-16.541 -12.028,-20.833l-692.851,-400.018c-11.429,-6.598 -26.263,-2.624 -32.862,8.805c-2.111,3.657 -3.223,7.806 -3.223,12.028l0,64.726c0,8.584 4.595,16.542 12.028,20.833l612.741,353.766c7.434,4.292 12.028,12.25 12.028,20.834l0,1054.75c0,8.583 -4.594,16.541 -12.028,20.833l-829.247,478.766Z" style="fill:#212121;fill-rule:nonzero;"/></g><g id="Body_Body2"><path d="M3653.78,3345.57l-396.466,228.9c-7.433,4.292 -12.028,12.249 -12.028,20.833l0,64.726c0,13.197 10.86,24.056 24.057,24.056c4.222,0 8.371,-1.112 12.028,-3.223l560.773,-323.762c7.433,-4.292 12.028,-12.25 12.028,-20.834l0,-41.666c0,-8.584 -4.595,-16.542 -12.028,-20.834l-1245.91,-719.328c-11.429,-6.599 -15.404,-21.433 -8.805,-32.862c2.111,-3.656 5.148,-6.694 8.805,-8.805l396.466,-228.899c7.433,-4.292 12.028,-12.25 12.028,-20.834l0,-64.725c0,-13.197 -10.86,-24.057 -24.057,-24.057c-4.222,0 -8.371,1.112 -12.028,3.223l-560.773,323.763c-7.433,4.292 -12.028,12.249 -12.028,20.833l0,41.667c0,8.583 4.595,16.541 12.028,20.833l1245.91,719.328c11.429,6.599 15.404,21.433 8.805,32.862c-2.111,3.657 -5.148,6.694 -8.805,8.805Z" style="fill:#212121;fill-rule:nonzero;"/></g><g id="Body_Body3"><path d="M3064.86,1923.02l0,645.032c0,8.583 4.595,16.541 12.028,20.833l741.195,427.929c11.429,6.598 26.263,2.624 32.862,-8.805c2.111,-3.657 3.223,-7.806 3.223,-12.028l0,-473.914c0,-8.584 -4.595,-16.541 -12.028,-20.833l-560.773,-323.763c-11.429,-6.598 -26.263,-2.623 -32.862,8.805c-2.111,3.657 -3.223,7.806 -3.223,12.029l0,64.725c0,8.584 4.595,16.542 12.028,20.834l480.663,277.51c7.434,4.292 12.028,12.25 12.028,20.834l0,214.743c0,13.197 -10.859,24.056 -24.056,24.056c-4.223,0 -8.372,-1.111 -12.028,-3.223l-516.747,-298.344c-7.434,-4.291 -12.028,-12.249 -12.028,-20.833l0,-723.646c0,-8.584 -4.595,-16.542 -12.028,-20.834l-36.085,-20.833c-7.434,-4.292 -16.622,-4.292 -24.056,0l-1017.61,587.518c-7.433,4.292 -12.028,12.249 -12.028,20.833l0,1175.04c0,8.584 4.595,16.542 12.028,20.834l692.851,400.017c11.429,6.599 26.263,2.624 32.862,-8.805c2.111,-3.657 3.223,-7.806 3.223,-12.028l0,-64.726c0,-8.584 -4.595,-16.541 -12.028,-20.833l-612.741,-353.766c-7.434,-4.292 -12.028,-12.25 -12.028,-20.833l0,-1054.75c0,-8.584 4.594,-16.542 12.028,-20.834l829.247,-478.766c11.429,-6.598 26.263,-2.623 32.861,8.806c2.112,3.656 3.223,7.805 3.223,12.028Z" style="fill:#212121;fill-rule:nonzero;"/></g></g></g></svg>