<svg xmlns="http://www.w3.org/2000/svg" viewBox="0 0 4167 4167"><path d="M2250.5 3867.6a42 42 0 0 1-62.7-36.2V2710.7c0-14.9-8-28.7-20.9-36.2L879.1 1931a42 42 0 0 0-62.6 36.2v823.4c0 15 8 28.8 20.9 36.2l974.3 562.5a42 42 0 0 0 62.7-36.1v-112.5c0-15-8-28.7-21-36.2l-835-482.2a41.8 41.8 0 0 1-21-36.2v-373a42 42 0 0 1 62.7-36.3l897.8 518.4a41.8 41.8 0 0 1 21 36.2v1257.3c0 14.9 8 28.7 20.8 36.2l62.7 36.2c13 7.4 29 7.4 41.8 0l1768-1020.8a41.8 41.8 0 0 0 21-36.2V1062.6c0-15-8-28.8-21-36.2l-1203.7-695a42 42 0 0 0-62.7 36.2V480c0 15 8 28.8 20.9 36.2L3691.3 1131a41.8 41.8 0 0 1 20.9 36.2v1832.5c0 15-8 28.8-21 36.2l-1440.7 831.8ZM3002 2806.8l-688.8 397.7a41.8 41.8 0 0 0-20.9 36.2v112.5a42 42 0 0 0 62.7 36.1l974.3-562.5a41.8 41.8 0 0 0 21-36.2v-72.4c0-14.9-8-28.7-21-36.2L1164.6 1432.3a42 42 0 0 1 0-72.4l688.9-397.7a41.8 41.8 0 0 0 20.8-36.2V813.5a42 42 0 0 0-62.6-36.2l-974.4 562.5a41.8 41.8 0 0 0-20.8 36.2v72.4c0 15 8 28.8 20.8 36.2L3002 2734.4a42 42 0 0 1 0 72.4ZM1978.8 335.2V1456c0 15 8 28.8 21 36.2l1287.7 743.5a42 42 0 0 0 62.7-36.2V1376c0-14.9-8-28.7-20.9-36.2L2355 777.3a42 42 0 0 0-62.7 36.2V926c0 14.9 8 28.7 21 36.2l835 482.1a41.8 41.8 0 0 1 21 36.2v373.1a42 42 0 0 1-62.8 36.2l-897.8-518.3a41.8 41.8 0 0 1-20.9-36.2V78c0-15-8-28.8-20.9-36.2l-62.7-36.2a41.8 41.8 0 0 0-41.8 0l-1768 1020.8a41.8 41.8 0 0 0-20.9 36.2V3104c0 15 8 28.7 21 36.2l1203.7 695a42 42 0 0 0 62.7-36.2v-112.5c0-14.9-8-28.7-21-36.2L475.5 3035.8a41.8 41.8 0 0 1-21-36.2V1167c0-14.9 8-28.7 21-36.2L1916 299a42 42 0 0 1 62.7 36.2Z"/></svg>
